<svg aria-hidden="true" style="position: absolute; width: 0; height: 0; overflow: hidden;" version="1.1" xmlns="http://www.w3.org/2000/svg" xmlns:xlink="http://www.w3.org/1999/xlink">
<defs>
<!-- <symbol id="icon-google-keyboard" viewBox="0 0 32 32">
<path d="M28.5 11.66h-11.875v-0.305c0-0.265 0.105-0.52 0.293-0.707s0.442-0.293 0.707-0.293h8.43c0.583-0.027 1.133-0.278 1.536-0.7s0.628-0.983 0.628-1.567-0.225-1.145-0.628-1.567c-0.403-0.422-0.953-0.673-1.536-0.7h-15.86c-0.265 0-0.52-0.105-0.707-0.293s-0.293-0.442-0.293-0.707v-0.82c0-0.166-0.066-0.325-0.183-0.442s-0.276-0.183-0.442-0.183c-0.166 0-0.325 0.066-0.442 0.183s-0.183 0.276-0.183 0.442v0.785c0 0.601 0.238 1.178 0.663 1.603s1.001 0.665 1.602 0.667h15.845c0.27 0 0.529 0.107 0.72 0.298s0.298 0.45 0.298 0.72-0.107 0.529-0.298 0.72c-0.191 0.191-0.45 0.298-0.72 0.298h-8.41c-0.601 0-1.178 0.238-1.603 0.663s-0.665 1.001-0.667 1.602v0.305h-11.875c-0.563 0.001-1.103 0.226-1.501 0.624s-0.623 0.938-0.624 1.501v12.715c0.001 0.563 0.226 1.103 0.624 1.501s0.938 0.623 1.501 0.624h25c0.563-0.001 1.103-0.226 1.501-0.624s0.623-0.938 0.624-1.501v-12.715c-0.001-0.563-0.226-1.103-0.624-1.501s-0.938-0.623-1.501-0.624zM20.255 14.5h1.060c0.166 0 0.325 0.066 0.442 0.183s0.183 0.276 0.183 0.442c0 0.166-0.066 0.325-0.183 0.442s-0.276 0.183-0.442 0.183h-1.060c-0.166 0-0.325-0.066-0.442-0.183s-0.183-0.276-0.183-0.442c0-0.166 0.066-0.325 0.183-0.442s0.276-0.183 0.442-0.183v0zM20.255 17.175h1.060c0.166 0 0.325 0.066 0.442 0.183s0.183 0.276 0.183 0.442c0 0.166-0.066 0.325-0.183 0.442s-0.276 0.183-0.442 0.183h-1.060c-0.166 0-0.325-0.066-0.442-0.183s-0.183-0.276-0.183-0.442c0-0.166 0.066-0.325 0.183-0.442s0.276-0.183 0.442-0.183v0zM20.255 19.855h1.060c0.166 0 0.325 0.066 0.442 0.183s0.183 0.276 0.183 0.442c0 0.166-0.066 0.325-0.183 0.442s-0.276 0.183-0.442 0.183h-1.060c-0.166 0-0.325-0.066-0.442-0.183s-0.183-0.276-0.183-0.442c0-0.166 0.066-0.325 0.183-0.442s0.276-0.183 0.442-0.183zM20.255 22.535h1.060c0.166 0 0.325 0.066 0.442 0.183s0.183 0.276 0.183 0.442c0 0.166-0.066 0.325-0.183 0.442s-0.276 0.183-0.442 0.183h-1.060c-0.166 0-0.325-0.066-0.442-0.183s-0.183-0.276-0.183-0.442c0-0.166 0.066-0.325 0.183-0.442s0.276-0.183 0.442-0.183v0zM17.065 14.5h1.060c0.166 0 0.325 0.066 0.442 0.183s0.183 0.276 0.183 0.442c0 0.166-0.066 0.325-0.183 0.442s-0.276 0.183-0.442 0.183h-1.060c-0.166 0-0.325-0.066-0.442-0.183s-0.183-0.276-0.183-0.442c0-0.166 0.066-0.325 0.183-0.442s0.276-0.183 0.442-0.183v0zM17.065 17.175h1.060c0.166 0 0.325 0.066 0.442 0.183s0.183 0.276 0.183 0.442c0 0.166-0.066 0.325-0.183 0.442s-0.276 0.183-0.442 0.183h-1.060c-0.166 0-0.325-0.066-0.442-0.183s-0.183-0.276-0.183-0.442c0-0.166 0.066-0.325 0.183-0.442s0.276-0.183 0.442-0.183v0zM17.065 19.855h1.060c0.166 0 0.325 0.066 0.442 0.183s0.183 0.276 0.183 0.442c0 0.166-0.066 0.325-0.183 0.442s-0.276 0.183-0.442 0.183h-1.060c-0.166 0-0.325-0.066-0.442-0.183s-0.183-0.276-0.183-0.442c0-0.166 0.066-0.325 0.183-0.442s0.276-0.183 0.442-0.183v0zM17.065 22.535h1.060c0.166 0 0.325 0.066 0.442 0.183s0.183 0.276 0.183 0.442c0 0.166-0.066 0.325-0.183 0.442s-0.276 0.183-0.442 0.183h-1.060c-0.166 0-0.325-0.066-0.442-0.183s-0.183-0.276-0.183-0.442c0-0.166 0.066-0.325 0.183-0.442s0.276-0.183 0.442-0.183v0zM13.875 14.5h1.060c0.166 0 0.325 0.066 0.442 0.183s0.183 0.276 0.183 0.442c0 0.166-0.066 0.325-0.183 0.442s-0.276 0.183-0.442 0.183h-1.060c-0.166 0-0.325-0.066-0.442-0.183s-0.183-0.276-0.183-0.442c0-0.166 0.066-0.325 0.183-0.442s0.276-0.183 0.442-0.183v0zM13.875 17.175h1.060c0.166 0 0.325 0.066 0.442 0.183s0.183 0.276 0.183 0.442c0 0.166-0.066 0.325-0.183 0.442s-0.276 0.183-0.442 0.183h-1.060c-0.166 0-0.325-0.066-0.442-0.183s-0.183-0.276-0.183-0.442c0-0.166 0.066-0.325 0.183-0.442s0.276-0.183 0.442-0.183v0zM13.875 19.855h1.060c0.166 0 0.325 0.066 0.442 0.183s0.183 0.276 0.183 0.442c0 0.166-0.066 0.325-0.183 0.442s-0.276 0.183-0.442 0.183h-1.060c-0.166 0-0.325-0.066-0.442-0.183s-0.183-0.276-0.183-0.442c0-0.166 0.066-0.325 0.183-0.442s0.276-0.183 0.442-0.183v0zM13.875 22.535h1.060c0.166 0 0.325 0.066 0.442 0.183s0.183 0.276 0.183 0.442c0 0.166-0.066 0.325-0.183 0.442s-0.276 0.183-0.442 0.183h-1.060c-0.166 0-0.325-0.066-0.442-0.183s-0.183-0.276-0.183-0.442c0-0.166 0.066-0.325 0.183-0.442s0.276-0.183 0.442-0.183v0zM10.685 14.5h1.060c0.166 0 0.325 0.066 0.442 0.183s0.183 0.276 0.183 0.442c0 0.166-0.066 0.325-0.183 0.442s-0.276 0.183-0.442 0.183h-1.060c-0.166 0-0.325-0.066-0.442-0.183s-0.183-0.276-0.183-0.442c0-0.166 0.066-0.325 0.183-0.442s0.276-0.183 0.442-0.183v0zM10.685 17.175h1.060c0.166 0 0.325 0.066 0.442 0.183s0.183 0.276 0.183 0.442c0 0.166-0.066 0.325-0.183 0.442s-0.276 0.183-0.442 0.183h-1.060c-0.166 0-0.325-0.066-0.442-0.183s-0.183-0.276-0.183-0.442c0-0.166 0.066-0.325 0.183-0.442s0.276-0.183 0.442-0.183v0zM10.685 19.855h1.060c0.166 0 0.325 0.066 0.442 0.183s0.183 0.276 0.183 0.442c0 0.166-0.066 0.325-0.183 0.442s-0.276 0.183-0.442 0.183h-1.060c-0.166 0-0.325-0.066-0.442-0.183s-0.183-0.276-0.183-0.442c0-0.166 0.066-0.325 0.183-0.442s0.276-0.183 0.442-0.183zM10.685 22.535h1.060c0.166 0 0.325 0.066 0.442 0.183s0.183 0.276 0.183 0.442c0 0.166-0.066 0.325-0.183 0.442s-0.276 0.183-0.442 0.183h-1.060c-0.166 0-0.325-0.066-0.442-0.183s-0.183-0.276-0.183-0.442c0-0.166 0.066-0.325 0.183-0.442s0.276-0.183 0.442-0.183v0zM7.5 14.5h1.060c0.166 0 0.325 0.066 0.442 0.183s0.183 0.276 0.183 0.442c0 0.166-0.066 0.325-0.183 0.442s-0.276 0.183-0.442 0.183h-1.060c-0.166 0-0.325-0.066-0.442-0.183s-0.183-0.276-0.183-0.442c0-0.166 0.066-0.325 0.183-0.442s0.276-0.183 0.442-0.183v0zM7.5 17.175h1.060c0.166 0 0.325 0.066 0.442 0.183s0.183 0.276 0.183 0.442c0 0.166-0.066 0.325-0.183 0.442s-0.276 0.183-0.442 0.183h-1.060c-0.166 0-0.325-0.066-0.442-0.183s-0.183-0.276-0.183-0.442c0-0.166 0.066-0.325 0.183-0.442s0.276-0.183 0.442-0.183v0zM7.5 19.855h1.060c0.166 0 0.325 0.066 0.442 0.183s0.183 0.276 0.183 0.442c0 0.166-0.066 0.325-0.183 0.442s-0.276 0.183-0.442 0.183h-1.060c-0.166 0-0.325-0.066-0.442-0.183s-0.183-0.276-0.183-0.442c0-0.166 0.066-0.325 0.183-0.442s0.276-0.183 0.442-0.183zM5.37 23.785h-1.065c-0.166 0-0.325-0.066-0.442-0.183s-0.183-0.276-0.183-0.442c0-0.166 0.066-0.325 0.183-0.442s0.276-0.183 0.442-0.183h1.060c0.166 0 0.325 0.066 0.442 0.183s0.183 0.276 0.183 0.442c0 0.166-0.066 0.325-0.183 0.442s-0.276 0.183-0.442 0.183h0.005zM5.37 21.105h-1.065c-0.166 0-0.325-0.066-0.442-0.183s-0.183-0.276-0.183-0.442c0-0.166 0.066-0.325 0.183-0.442s0.276-0.183 0.442-0.183h1.060c0.166 0 0.325 0.066 0.442 0.183s0.183 0.276 0.183 0.442c0 0.166-0.066 0.325-0.183 0.442s-0.276 0.183-0.442 0.183h0.005zM5.37 18.425h-1.065c-0.166 0-0.325-0.066-0.442-0.183s-0.183-0.276-0.183-0.442c0-0.166 0.066-0.325 0.183-0.442s0.276-0.183 0.442-0.183h1.060c0.166 0 0.325 0.066 0.442 0.183s0.183 0.276 0.183 0.442c0 0.166-0.066 0.325-0.183 0.442s-0.276 0.183-0.442 0.183h0.005zM5.37 15.75h-1.065c-0.166 0-0.325-0.066-0.442-0.183s-0.183-0.276-0.183-0.442c0-0.166 0.066-0.325 0.183-0.442s0.276-0.183 0.442-0.183h1.060c0.166 0 0.325 0.066 0.442 0.183s0.183 0.276 0.183 0.442c0 0.166-0.066 0.325-0.183 0.442s-0.276 0.183-0.442 0.183h0.005zM6.87 23.16c0.005-0.163 0.074-0.318 0.192-0.431s0.275-0.176 0.438-0.174h1.060c0.166 0 0.325 0.066 0.442 0.183s0.183 0.276 0.183 0.442c0 0.166-0.066 0.325-0.183 0.442s-0.276 0.183-0.442 0.183h-1.060c-0.082 0.001-0.164-0.015-0.241-0.046s-0.146-0.077-0.205-0.135c-0.059-0.058-0.105-0.127-0.137-0.203s-0.048-0.158-0.048-0.24v-0.020zM24.37 26.16h-16.085c-0.166 0-0.325-0.066-0.442-0.183s-0.183-0.276-0.183-0.442c0-0.166 0.066-0.325 0.183-0.442s0.276-0.183 0.442-0.183h16.070c0.166 0 0.325 0.066 0.442 0.183s0.183 0.276 0.183 0.442c0 0.166-0.066 0.325-0.183 0.442s-0.276 0.183-0.442 0.183h0.015zM24.52 23.77h-1.075c-0.166 0-0.325-0.066-0.442-0.183s-0.183-0.276-0.183-0.442c0-0.166 0.066-0.325 0.183-0.442s0.276-0.183 0.442-0.183h1.055c0.166 0 0.325 0.066 0.442 0.183s0.183 0.276 0.183 0.442c0 0.166-0.066 0.325-0.183 0.442s-0.276 0.183-0.442 0.183h0.020zM24.52 21.090h-1.075c-0.166 0-0.325-0.066-0.442-0.183s-0.183-0.276-0.183-0.442c0-0.166 0.066-0.325 0.183-0.442s0.276-0.183 0.442-0.183h1.055c0.166 0 0.325 0.066 0.442 0.183s0.183 0.276 0.183 0.442c0 0.166-0.066 0.325-0.183 0.442s-0.276 0.183-0.442 0.183h0.020zM24.52 18.41h-1.075c-0.166 0-0.325-0.066-0.442-0.183s-0.183-0.276-0.183-0.442c0-0.166 0.066-0.325 0.183-0.442s0.276-0.183 0.442-0.183h1.055c0.166 0 0.325 0.066 0.442 0.183s0.183 0.276 0.183 0.442c0 0.166-0.066 0.325-0.183 0.442s-0.276 0.183-0.442 0.183h0.020zM24.52 15.735h-1.075c-0.166 0-0.325-0.066-0.442-0.183s-0.183-0.276-0.183-0.442c0-0.166 0.066-0.325 0.183-0.442s0.276-0.183 0.442-0.183h1.055c0.166 0 0.325 0.066 0.442 0.183s0.183 0.276 0.183 0.442c0 0.166-0.066 0.325-0.183 0.442s-0.276 0.183-0.442 0.183h0.020zM27.71 23.77h-1.075c-0.166 0-0.325-0.066-0.442-0.183s-0.183-0.276-0.183-0.442c0-0.166 0.066-0.325 0.183-0.442s0.276-0.183 0.442-0.183h1.060c0.166 0 0.325 0.066 0.442 0.183s0.183 0.276 0.183 0.442c0 0.166-0.066 0.325-0.183 0.442s-0.276 0.183-0.442 0.183h0.015zM27.71 21.090h-1.075c-0.166 0-0.325-0.066-0.442-0.183s-0.183-0.276-0.183-0.442c0-0.166 0.066-0.325 0.183-0.442s0.276-0.183 0.442-0.183h1.060c0.166 0 0.325 0.066 0.442 0.183s0.183 0.276 0.183 0.442c0 0.166-0.066 0.325-0.183 0.442s-0.276 0.183-0.442 0.183h0.015zM27.71 18.41h-1.075c-0.166 0-0.325-0.066-0.442-0.183s-0.183-0.276-0.183-0.442c0-0.166 0.066-0.325 0.183-0.442s0.276-0.183 0.442-0.183h1.060c0.166 0 0.325 0.066 0.442 0.183s0.183 0.276 0.183 0.442c0 0.166-0.066 0.325-0.183 0.442s-0.276 0.183-0.442 0.183h0.015zM27.71 15.735h-1.075c-0.166 0-0.325-0.066-0.442-0.183s-0.183-0.276-0.183-0.442c0-0.166 0.066-0.325 0.183-0.442s0.276-0.183 0.442-0.183h1.060c0.166 0 0.325 0.066 0.442 0.183s0.183 0.276 0.183 0.442c0 0.166-0.066 0.325-0.183 0.442s-0.276 0.183-0.442 0.183h0.015z"></path>
</symbol> -->
<symbol id="icon-google-search" viewBox="0 0 32 32">
<path fill="#c4c4c4" style="fill: var(--color1, #c4c4c4)" d="M22.87 20.126h-1.445l-0.512-0.494c1.793-2.086 2.873-4.794 2.873-7.739 0-6.568-5.324-11.893-11.893-11.893s-11.893 5.324-11.893 11.893c0 6.568 5.324 11.893 11.893 11.893 2.946 0 5.654-1.079 7.739-2.873l0.494 0.512v1.445l9.148 9.13 2.726-2.726-9.13-9.148zM11.893 20.126c-4.556 0-8.233-3.677-8.233-8.233s3.678-8.233 8.233-8.233c4.556 0 8.233 3.678 8.233 8.233s-3.677 8.233-8.233 8.233z"></path>
</symbol>
<symbol id="icon-google-microphone" viewBox="0 0 32 32">
<path fill="#4285f4" style="fill: var(--color2, #4285f4)" d="M16 20c2.213 0 3.987-1.787 3.987-4l0.013-9.333c0-2.213-1.787-4-4-4s-4 1.787-4 4v9.333c0 2.213 1.787 4 4 4z"></path>
<path fill="#34a853" style="fill: var(--color3, #34a853)" d="M14.667 25.227h2.667v4.107h-2.667z"></path>
<path fill="#f4b400" style="fill: var(--color4, #f4b400)" d="M9.333 16h-2.667c0 2.573 1.040 4.907 2.733 6.6l1.88-1.88c-1.2-1.213-1.947-2.88-1.947-4.72z"></path>
<path fill="#ea4335" style="fill: var(--color5, #ea4335)" d="M16 22.667c-1.84 0-3.507-0.747-4.72-1.96l-1.88 1.88c1.688 1.697 4.025 2.747 6.607 2.747 0.002 0 0.004 0 0.007 0h-0c5.16 0 9.307-4.187 9.307-9.333h-2.667c0 3.68-2.973 6.667-6.653 6.667z"></path>
</symbol>
<symbol id="icon-favicon-chrome" viewBox="0 0 32 32">
<path fill="#c4c4c4" style="fill: var(--color1, #c4c4c4)" d="M16 2.667c-4.147 0-7.846 1.886-10.286 4.853l3.866 6.701c0.787-2.813 3.361-4.887 6.421-4.887h11.54c-2.3-3.987-6.607-6.667-11.54-6.667zM4.453 9.34c-1.14 1.96-1.786 4.233-1.786 6.66 0 6.613 4.806 12.1 11.126 13.147l3.874-6.701c-0.533 0.14-1.093 0.22-1.667 0.22-2.46 0-4.614-1.346-5.767-3.34l-0.007 0.006-5.773-9.993zM16 11.333c-2.577 0-4.667 2.089-4.667 4.667s2.089 4.667 4.667 4.667v0c2.577 0 4.667-2.089 4.667-4.667s-2.089-4.667-4.667-4.667v0zM20.754 11.333c1.18 1.207 1.913 2.853 1.913 4.667 0 1.213-0.333 2.347-0.9 3.327l0.006 0.006-5.773 10c7.367 0 13.333-5.967 13.333-13.333 0-1.64-0.3-3.213-0.84-4.667h-7.74z"></path>
</symbol>

</defs>
</svg>
